<svg xmlns="http://www.w3.org/2000/svg" width="63" height="12" viewBox="0 0 63 12"><g fill="none" fill-rule="evenodd"><path fill="#202223" d="M60.2319963 2.13779528C60.4964552 1.03937008 60.7785448.537401575 61.6718284.206692913L61.6718284.171259843 58.3749067.171259843 58.3749067.206692913C58.8391791.42519685 59.0037313.690944882 59.0037313 1.13976378 59.0037313 1.40551181 58.9390858 1.72440945 58.8391791 2.13779528L56.917444 9.86811024C56.6529851 10.9665354 56.3708955 11.4685039 55.4776119 11.7992126L55.4776119 11.8346457 61.8069963 11.8346457 63 8.46850394 62.9647388 8.46850394C61.4426306 10.7007874 60.6433769 11.4507874 58.7862873 11.4507874L57.9223881 11.4507874 60.2319963 2.13779528ZM56.30625 2.38582677C56.6353545 1.10433071 57.2347948.537401575 58.1280784.206692913L58.1280784.171259843 55.1426306.171259843 55.1426306.206692913C55.6715485.442913386 55.9888993.820866142 55.9888993 1.50590551 55.9888993 1.75393701 55.9536381 2.01968504 55.8713619 2.33858268L54.3433769 8.46850394C53.9319963 10.1338583 53.0152052 11.2972441 51.6106343 11.2972441 50.4176306 11.2972441 49.9063433 10.5472441 49.9063433 9.46653543 49.9063433 9.11811024 49.9533582 8.7519685 50.0532649 8.3503937L51.5930037 2.13779528C51.8750933 1.03937008 52.1395522.537401575 53.0328358.206692913L53.0328358.171259843 49.7359142.171259843 49.7359142.206692913C50.2001866.42519685 50.3823694.690944882 50.3823694 1.15748031 50.3823694 1.40551181 50.3177239 1.74212598 50.2178172 2.13779528L48.6428172 8.46850394C48.560541 8.83464567 48.5076493 9.17125984 48.5076493 9.48425197 48.5076493 10.984252 49.436194 12 51.1111007 12 53.1151119 12 54.2963619 10.5354331 54.7900187 8.52165354L56.30625 2.38582677ZM45.9629664.00590551181C47.555597.00590551181 48.5487873 1.48818898 48.5487873 3.75590551 48.5487873 7.53543307 46.1921642 12 43.2596082 12 41.6669776 12 40.6737873 10.5177165 40.6737873 8.25 40.6737873 4.47047244 43.0304104.00590551181 45.9629664.00590551181ZM45.9629664.383858268C44.3879664.383858268 43.3595149 2.83464567 42.5661381 6 42.2311567 7.37007874 42.0666045 8.5984252 42.0666045 9.5492126 42.0666045 10.8129921 42.4133396 11.6161417 43.2596082 11.6161417 44.8346082 11.6161417 45.8630597 9.16535433 46.6564366 6 46.9914179 4.63582677 47.1559701 3.4015748 47.1559701 2.4507874 47.1559701 1.18110236 46.8092351.383858268 45.9629664.383858268ZM40.5092351 3.68503937 40.5444963 3.68503937 41.4554104.00590551181C41.2203358.253937008 41.0557836.419291339 40.6914179.419291339 40.2447761.419291339 39.7628731 0 38.7050373 0 36.8009328 0 35.4081157 1.46456693 35.4081157 3.5492126 35.4081157 6.11220472 38.4934701 6.49606299 38.4934701 8.91141732 38.4934701 10.3110236 37.7823694 11.6102362 36.2720149 11.6102362 34.9791045 11.6102362 34.168097 10.246063 34.0329291 7.96062992L33.9976679 7.96062992 33.2336754 11.988189C33.5333955 11.6574803 33.7625933 11.4862205 34.0975746 11.4862205 34.5971082 11.4862205 35.0907649 11.988189 36.2720149 11.988189 38.19375 11.988189 39.8040112 10.4232283 39.8040112 8.19094488 39.8040112 5.67519685 36.6716418 5.12598425 36.6716418 2.76377953 36.6716418 1.51181102 37.4180037.383858268 38.7109142.383858268 40.2447761.38976378 40.3916978 2.05511811 40.5092351 3.68503937M26.1050373 6.43700787 24.1656716 1.87204724C24.0011194 1.48818898 23.930597 1.20472441 23.930597.992125984 23.930597.578740157 24.1656716.395669291 24.4947761.206692913L24.4947761.171259843 21.5445896.171259843 21.5445896.206692913C22.1557836.625984252 22.3379664 1.03937008 22.6729478 1.77165354L24.9766791 6.98622047 24.9766791 10.003937C24.9766791 11.1023622 24.7416045 11.4862205 23.9482276 11.8051181L23.9482276 11.8405512 27.345056 11.8405512 27.345056 11.8051181C26.5516791 11.4862205 26.3166045 11.1082677 26.3166045 10.003937L26.3166045 6.98622047 28.6203358 1.77165354C28.9494403 1.03937008 29.2021455.590551181 29.8309701.206692913L29.8309701.171259843 27.4919776.171259843 27.4919776.206692913C27.9915112.42519685 28.2383396.755905512 28.2383396 1.24015748 28.2383396 1.48818898 28.1560634 1.80708661 28.0032649 2.13779528L26.1050373 6.43700787Z"/><path fill="#202223" d="M17.5835821,0.171259843 C20.4514925,0.171259843 22.7728545,2.10826772 22.7728545,5.87007874 C22.7728545,9.92125984 20.3515858,11.8346457 17.9009328,11.8346457 L15.050653,11.8346457 L15.050653,11.7992126 C15.8675373,11.4685039 16.014459,10.9665354 16.014459,9.86811024 L16.014459,2.13779528 C16.014459,1.03937008 15.8616604,0.537401575 15.050653,0.206692913 L15.050653,0.171259843 Z M17.5718284,0.572834646 L17.3896455,0.572834646 L17.3896455,11.4330709 L17.7657649,11.4330709 C19.7403918,11.4330709 21.2331157,9.93307087 21.2331157,5.87007874 C21.2331157,2.35629921 19.7462687,0.572834646 17.5718284,0.572834646 Z"/><path fill="#202223" d="M11.3012127.00590551181C13.3404851.00590551181 15.0800373 2.50393701 15.0800373 6 15.0800373 9.5019685 13.3404851 12 11.3012127 11.9941049 9.2619403 11.9941049 7.54001866 9.49606299 7.54001866 6 7.54001866 2.50393701 9.2619403.00590551181 11.3012127.00590551181ZM11.3012127.377952756C9.76147388.377952756 9.19729478 2.82874016 9.19729478 5.99409449 9.19729478 9.15944882 9.76147388 11.6102362 11.3012127 11.6102362 12.8409515 11.6102362 13.4227612 9.16535433 13.4227612 6 13.4227612 2.84055118 12.8409515.377952756 11.3012127.377952756ZM2.95018657.177165354C5.05410448.177165354 6.61147388 1.07480315 6.61147388 3.15944882 6.61147388 4.75393701 5.37145522 5.67519685 3.86110075 5.82283465 5.35382463 5.88779528 7.17565299 6.85629921 7.17565299 8.76968504 7.17565299 11.0019685 5.58889925 11.8346457 3.24990672 11.8346457L0 11.8405512 0 11.8051181C.816884328 11.4744094.96380597 10.9724409.96380597 9.87401575L.96380597 2.14370079C.96380597 1.04527559.811007463.543307087 0 .212598425L0 .177165354ZM2.98544776 6.06496063 2.33899254 6.06496063 2.33899254 11.4625984 2.99132463 11.4625984C4.66035448 11.4625984 5.70643657 10.5767717 5.70643657 8.76377953 5.70643657 6.96259843 4.66035448 6.06496063 2.98544776 6.06496063ZM2.7386194.537401575 2.33899254.537401575 2.33899254 5.70472441 2.7386194 5.70472441C4.26072761 5.70472441 5.18927239 4.83661417 5.18927239 3.15354331 5.18927239 1.47047244 4.26660448.537401575 2.7386194.537401575Z"/><g stroke="#202223" stroke-width=".375" transform="translate(28.556 2.811)"><line x1="3.012" x2="3.012" y2="6.012"/><line x2="5.983" y1="3.026" y2="3.026"/></g></g></svg>